<?xml version="1.0" encoding="utf-8"?>
<!-- Generator: Adobe Illustrator 19.0.0, SVG Export Plug-In . SVG Version: 6.00 Build 0)  -->
<svg version="1.1" id="Layer_1" xmlns="http://www.w3.org/2000/svg" xmlns:xlink="http://www.w3.org/1999/xlink" x="0px" y="0px"
	 viewBox="-223 346.6 148.3 148.3" style="enable-background:new -223 346.6 148.3 148.3;" xml:space="preserve">
<style type="text/css">
	.st0{fill:#FCEE23;}
	.st1{fill:#1D0E0E;}
	.st2{fill:#FFFFFF;}
	.st3{fill:#F7941E;}
	.st4{fill:#F15A29;}
	.st5{fill:#00A651;}
	.st6{fill:#2E3192;}
	.st7{fill:#00AEEF;}
	.st8{fill:#EC008C;}
</style>
<g id="XMLID_49_">
	<g id="XMLID_131_">
		<g id="XMLID_1_">
			<path id="XMLID_114_" d="M-984.5,299c2.5,47.2-29.2,80.3-29.2,80.3c-31.8,25.3-33.2,74.5-33.2,74.5l-99.4,11.8
				c-0.7-53.8-20.6-73.1-20.6-73.1c-5.4-4.8-12.6-11.9-19.6-21.7c-5.7-8-23.9-34.4-23.8-69.2c0.1-35.2,19-69.6,48.1-89.8
				c19.3-13.5,42.6-20.4,65.9-20.4c24.1,0,48.2,7.4,68,22.3C-987.4,244.9-984.8,293.5-984.5,299z M-1009.5,349.9
				c8.7-16.5,12.6-33.3,11.7-50.2c-0.5-9.3-2.6-19.8-5.9-29.4c-6.6-19.1-17.6-34.5-32.6-45.9c-8.5-6.4-18.1-11.4-28.4-14.7
				c-10.1-3.3-20.7-4.9-31.5-4.9c-21,0-41.7,6.4-58.3,18c-12.7,8.8-23.3,20.9-30.8,34.8c-7.5,14-11.6,29.3-11.6,44.3
				c-0.1,13,2.8,26.2,8.6,39.3c4.9,11.2,10.6,19.2,12.7,22.2c5,7.1,10.9,13.6,17.5,19.4l0.2,0.2l0.2,0.2c1.1,1.1,7.1,7.3,12.9,20.6
				c5.9,13.4,9.6,29.2,11,47.2l74.7-8.9c2.5-17.6,10.5-51.2,36.2-72.3C-1021.1,367.8-1015.1,360.7-1009.5,349.9z"/>
			<path id="XMLID_113_" class="st0" d="M-997.7,299.7c0.9,16.9-3.1,33.7-11.7,50.2c-5.7,10.7-11.6,17.9-13.3,19.8
				c-25.7,21.1-33.8,54.7-36.2,72.3l-74.7,8.9c-1.4-17.9-5.1-33.8-11-47.2c-5.8-13.2-11.8-19.4-12.9-20.6l-0.2-0.2l-0.2-0.2
				c-6.6-5.8-12.5-12.3-17.5-19.4c-2.1-3-7.8-11-12.7-22.2c-5.8-13.1-8.6-26.3-8.6-39.3c0.1-15,4.1-30.3,11.6-44.3
				c7.5-13.9,18.1-25.9,30.8-34.8c16.6-11.6,37.3-18,58.3-18c10.8,0,21.4,1.6,31.5,4.9c10.4,3.3,20,8.3,28.4,14.7
				c15,11.4,26,26.8,32.6,45.9C-1000.3,280-998.2,290.4-997.7,299.7z"/>
		</g>
		<g id="XMLID_139_">
			<path id="XMLID_21_" d="M-1231.1,447.8c-3.3-0.1-6.2-2.1-7.9-5.4c-1.7-3.3-1.5-6.8,0.9-9.7c2.3-2.7,4.9-5.1,7.6-7.5
				c11.2-10.1,22.5-20.2,33.8-30.3c0.2-0.2,0.4-0.3,0.6-0.5c4-3.4,8.4-3.9,11-1.3c2.5,2.6,2,6.7-1.4,10.6
				c-11.5,12.9-23,25.8-34.6,38.7C-1223.6,445.2-1226.3,447.8-1231.1,447.8z"/>
			<path id="XMLID_20_" d="M-964.8,448.7c-2.6-1.8-5.7-3.2-7.8-5.4c-8.6-9.2-16.9-18.7-25.3-28.1c-3.1-3.5-6.3-7-9.4-10.5
				c-0.8-0.9-1.5-1.7-2.1-2.7c-1.8-2.9-2.5-5.9-0.1-8.8c2-2.4,5.9-2.6,9-0.1c4.7,3.7,9.1,7.8,13.5,11.8c9.7,8.6,19.4,17.2,28.9,26.1
				c5.3,5,4.3,12.5-1.8,15.7c-1.3,0.7-2.8,1-4.3,1.4C-964.3,448.3-964.6,448.5-964.8,448.7z"/>
			<path id="XMLID_19_" d="M-953.3,169.9c-1.4,2.5-2.3,5.4-4.2,7.1c-13.6,12.5-27.4,24.7-41.1,37c-1.1,1-2.6,2.1-4,2.1
				c-2.1,0-4.8-0.2-6.2-1.5c-1.2-1.2-1.5-3.9-1.3-5.9c0.2-1.6,1.4-3.2,2.6-4.5c11.8-13.3,23.6-26.6,35.6-39.8c5-5.5,11-5.8,15.2-0.9
				C-955.2,165.2-954.5,167.5-953.3,169.9z"/>
			<path id="XMLID_18_" d="M-1185,210.2c0.1,5.6-3.7,8.5-7.7,7c-1.9-0.7-3.6-1.9-5.1-3.2c-12.7-11.2-25.3-22.5-37.9-33.8
				c-1.3-1.2-2.6-2.5-3.6-3.9c-3.1-4.2-2.6-8.9,1-12.4c3.5-3.4,8.1-3.7,12.2-0.9c1.2,0.9,2.4,1.9,3.4,3.1
				c11.5,12.9,23.1,25.7,34.5,38.7C-1186.6,206.7-1185.6,209.1-1185,210.2z"/>
			<path id="XMLID_17_" d="M-1259.9,313.1c-7.9,0.4-16.7,0.9-25.6,1.1c-6,0.2-10-3.5-10.3-8.9c-0.3-6.1,3.9-10.5,10.5-10.2
				c10.8,0.4,21.6,1.1,32.3,1.7c6.7,0.4,13.4,0.8,20.2,1.2c0.9,0.1,1.8,0.1,2.7,0.2c4.4,0.5,7.7,3.2,7.7,6.5
				c0.1,3.4-2.9,6.2-7.6,6.6c-7.6,0.6-15.2,0.9-22.8,1.3C-1254.9,312.7-1256.9,312.9-1259.9,313.1z"/>
			<path id="XMLID_16_" d="M-931.6,296.2c7.2-0.4,14.4-0.9,21.7-1.1c6.8-0.2,11.2,3.7,11.1,9.7c0,5.9-4.4,9.8-11.3,9.5
				c-17.9-0.9-35.7-1.9-53.6-2.9c-0.8,0-1.5-0.2-2.3-0.3c-4-1-6.4-3.5-6.2-6.6s3.1-5.9,7.1-6.2c5.4-0.5,10.9-0.7,16.3-1
				c5.7-0.3,11.4-0.6,17.1-0.9C-931.6,296.3-931.6,296.3-931.6,296.2z"/>
			<path id="XMLID_15_" d="M-1088,137.4c-0.6,10.8-1.2,21.5-1.7,32.3c0,0.4,0,0.8-0.1,1.1c-0.4,4.4-3.2,7.7-6.4,7.9
				c-3.3,0.2-6.3-2.8-6.6-7.5c-0.8-9.5-1.3-19-1.9-28.5c-0.5-8.2-0.9-16.5-1.2-24.7c-0.1-2.2,0-4.6,0.6-6.7
				c1.3-4.3,5.8-6.6,10.3-5.9c4.6,0.7,8.1,4.4,8.1,9.2C-1087,122.2-1087.5,129.8-1088,137.4C-1087.9,137.4-1087.9,137.4-1088,137.4z
				"/>
		</g>
		<polygon id="XMLID_14_" points="-1147.8,480 -1147.6,491 -1047.8,478 -1048.7,466.1 -1147.8,478.9 		"/>
		<polygon id="XMLID_13_" points="-1147.6,505.1 -1147.4,516.1 -1047.7,503 -1048.5,491.2 -1147.6,503.9 		"/>
		<path id="XMLID_12_" d="M-1145.7,528.4l98-12.4c0,0-14.3,34.4-44.6,37.2C-1122.7,556.1-1145.7,528.4-1145.7,528.4z"/>
		<g id="XMLID_132_">
			<path id="XMLID_11_" class="st1" d="M-1038.6,312.9c-0.9,0.4-1.6,0.8-2.4,1.2c-2.5,1.3-5.3,0.4-6.8-2c-1.3-2.2-0.6-5.1,1.6-6.6
				c0.9-0.6,1.9-1,2.8-1.5c3.9-2,7.7-3.9,11.6-5.8c3.2-1.6,6.6-0.1,7.4,3.2c0.5,2.1-0.4,4.7-2.4,5.4c-2.9,1-3.2,2.9-3,5.6
				c1.1,19.8-4.7,37.3-17.9,52.1c-10.9,12.4-24.7,20-41.1,21.9c-23.1,2.8-42.7-4.8-58.4-22c-8.1-8.9-13.4-19.4-16.2-31.2
				c-1.8-7.8-2.5-15.6-1.5-23.6c0.1-0.5-0.4-1.2-0.8-1.5c-0.7-0.6-1.6-0.9-2.4-1.3c-2.2-1.3-3.1-4-2.1-6.3c1-2.3,3.6-3.5,6-2.8
				c0.7,0.2,1.4,0.5,2,0.9c4.2,2.1,8.4,4.2,12.6,6.4c3.4,1.7,4.2,5.2,2,7.9c-1.6,1.9-4,2.4-6.2,1.3c-0.7-0.4-1.5-0.8-2.4-1.2
				c-0.1,0.6-0.2,1.1-0.2,1.5c-0.3,13.6,2.9,26.3,10.6,37.6c5.7,8.4,13.1,15.1,22.3,19.8c11.7,6,24.1,7.7,36.9,5.2
				c17.1-3.3,30.1-12.9,39.2-27.7C-1040.5,338.2-1037.6,325.1-1038.6,312.9z"/>
			<path id="XMLID_10_" class="st1" d="M-1137,265.8c0.2-9.1,1.2-16.1,4.9-22.4c1.2-2,2.8-4,4.7-5.5c3.2-2.6,6.9-2.4,10.1,0.1
				c2.5,1.9,4.2,4.5,5.5,7.3c2.1,4.5,3.1,9.3,3.5,14.3c0.6,7.2-0.2,14.2-2.8,21c-1.2,3.2-2.9,6.3-5.6,8.6c-4.1,3.5-8.4,3.3-12.2-0.5
				c-3.6-3.6-5.5-8.1-6.6-12.9C-1136.3,271.9-1136.7,267.8-1137,265.8z"/>
			<path id="XMLID_9_" class="st1" d="M-1056.9,265.6c-0.1,5.5-1.2,12.4-4.7,18.7c-0.9,1.5-2,3-3.2,4.2c-4.2,4.3-9.4,4.1-13.4-0.4
				c-3.8-4.2-5.6-9.3-6.6-14.7c-1.8-9.6-1.2-19.1,2.9-28.2c1.2-2.7,2.8-5.1,5.2-7c3.7-3,8-2.8,11.5,0.5c2.9,2.7,4.6,6,5.9,9.7
				C-1057.6,253.4-1056.9,258.6-1056.9,265.6z"/>
		</g>
	</g>
	<g id="XMLID_8_">
		<path id="XMLID_50_" class="st1" d="M-1286.1,567c2.3,0,4.7-1.2,7.1-3.5c3.6-3.5,3.6-3.8,3.6-4.1c0-0.7-0.5-1.2-1.2-1.2
			c-1,0-1.6,0.2-1.9,0.6c-0.2,0.2-0.8,0.8-2.9,2.7c-1.6,1.5-3.1,2.3-4.2,2.5c-0.8,0-1.6-0.6-2.5-1.7c-0.9-1.2-1.4-2.1-1.5-2.8v-0.1
			c-0.2-0.8-0.8-1.2-1.6-1.2l0,0c-0.9,0.1-1.5,0.6-1.5,1.5c0,1.3,0.6,2.7,1.9,4.5C-1289.5,566-1287.9,567-1286.1,567z"/>
		<path id="XMLID_66_" class="st1" d="M-1215.4,585.6c0.6,0,1.2-0.2,1.7-0.7s0.7-1,0.7-1.7s-0.2-1.1-0.6-1.5
			c-0.8-0.8-2.2-0.8-3.2,0.1c-0.5,0.5-0.7,1-0.7,1.7c0,0.6,0.2,1.1,0.6,1.5C-1216.5,585.4-1216,585.6-1215.4,585.6z"/>
		<path id="XMLID_67_" class="st1" d="M-1176.7,587.2c2.3,0,4.7-1.2,7.1-3.5c3.6-3.5,3.6-3.8,3.6-4.1c0-0.7-0.5-1.2-1.2-1.2
			c-1,0-1.6,0.2-1.9,0.6c-0.2,0.2-0.8,0.8-2.9,2.7c-1.6,1.5-3.1,2.3-4.2,2.5c-0.8,0-1.6-0.6-2.5-1.7c-0.9-1.2-1.4-2.1-1.5-2.8v-0.1
			c-0.2-0.8-0.8-1.2-1.6-1.2l0,0c-0.9,0.1-1.5,0.6-1.5,1.5c0,1.3,0.6,2.7,1.9,4.5C-1180,586.2-1178.5,587.1-1176.7,587.2z"/>
		<path id="XMLID_70_" class="st1" d="M-1144.2,605.5c0-1.4-1-1.5-1.3-1.5c-0.9,0-1.4,0.4-1.6,0.8c-3.7,6-7,9.1-9.8,9.1
			c-1.4,0-2.7-0.5-3.9-1.6c-1.2-1-2.1-2.7-2.7-5.1c2.4-3,4.1-5.4,4.9-6.9c0.9-1.6,1.3-2.9,1.3-4c0-1.7-0.7-3.7-4.2-3.7
			c-2.1,0-3.7,0.8-4.8,2.5c-1.1,1.6-1.6,3.5-1.6,5.7c0,2,0.2,4,0.7,5.8c-1.2,1.4-2.7,2.8-4.5,4.2c-2.7,2.1-5.2,3.1-7.4,3.1
			c-1.8,0-3.4-0.5-4.8-1.4c-1.3-0.9-2-2.3-2-4.3c0-2.4,0.9-5.2,2.8-8.3c1.8-3,3.6-4.5,5.3-4.5c0.5,0,0.6,0.2,0.8,0.3
			c0.2,0.3,0.3,0.6,0.3,0.9c0,0.6-0.2,1.5-0.7,2.6v0.2c0,1.5,1,1.6,1.3,1.6c1,0,1.7-0.6,2-1.6c0.3-1.1,0.5-2.2,0.5-3
			c0-1.2-0.4-2.2-1.1-3c-0.7-0.8-1.7-1.2-2.9-1.2c-2.9,0-5.6,1.9-7.9,5.6c-1.4,2.2-2.4,4.3-2.9,6.4c-0.1,0.1-0.1,0.2-0.2,0.2
			c-3.7,6-7,9.1-9.8,9.1c-1.4,0-2.7-0.5-3.9-1.6c-1.2-1-2.1-2.7-2.7-5.1c2.4-3,4.1-5.4,4.9-6.9c0.9-1.6,1.3-2.9,1.3-4
			c0-1.7-0.7-3.7-4.2-3.7c-2.1,0-3.7,0.8-4.8,2.5c-1.1,1.6-1.6,3.5-1.6,5.7c0,2,0.2,4,0.7,5.8c-1.7,2.1-3.5,3.8-5.3,5.3
			c-1.4,1.1-2.7,2.2-4.1,3.3c1.7-12.2,2.6-18.6,2.7-19.5c0.2-0.9,0.3-1.7,0.3-2.3c0-0.3-0.1-1.3-1.5-1.3c-0.5,0-1.4,0.2-1.7,1.5
			c-1.4,3.7-2.6,6.3-3.5,7.8c-0.6,1-1.1,1.8-1.4,2.3c-1.1,1.5-2.4,2.2-4.1,2.2c-1.3,0-2.3-0.4-3-1.2s-1.1-1.7-1.1-2.6l0.1-1.4
			c1.1-5.5,1.3-6.6,1.3-6.9c0-0.4-0.1-0.7-0.2-1c-0.2-0.4-0.6-0.6-1-0.6c-0.3,0-0.6,0.1-1,0.4c-0.3,0.2-0.7,0.7-1.1,2.6
			c-0.3,1.3-0.6,3-1,5s-1.2,4.8-2.5,8.4c-1.2,3.4-2.6,5.1-4.3,5.1c-0.7,0-0.9-0.3-1-0.6c-0.2-0.6-0.3-1.2-0.3-2s0.1-2,0.4-3.6
			c0.3-1.6,0.7-3.7,1.4-6.2c0.7-2.6,1.1-4.4,1.1-5.5c0-0.7-0.2-1.5-0.6-2.2c-0.4-0.8-1.2-1.3-2.5-1.4c-2.3,0-4.5,1.7-6.7,5.1
			c-1.8,2.8-3.2,5-4.1,6.5c-0.1,0.2-0.2,0.3-0.2,0.4l-0.1,0.1c-1.3,1.6-3.1,2.4-5.3,2.4c-1.3,0-2.5-0.2-3.5-0.6
			c0.4-1.5,0.6-3.1,0.6-4.8c0-2.5-0.6-4.6-1.8-6.4c-1.2-1.8-2.8-2.7-4.8-2.7c-2.9,0-5.5,1.7-7.7,4.9c-1.4,2.1-2.4,4.3-2.9,6.7
			c-0.2,0.3-0.3,0.5-0.4,0.7c-0.2,0.3-0.4,0.6-0.7,1.1c-0.5,0.9-2,2.5-4.4,4.7s-5.3,3.3-8.8,3.3c-2.7,0-4.8-1-6.4-3s-2.4-4.7-2.4-8
			c0-2.9,0.5-6.2,1.6-9.7s2.4-6.7,4-9.5c1.5-2.7,3.4-4.8,5.5-6.2c2.1-1.4,4.1-2.1,5.8-2.1c1.2,0,2.1,0.4,2.9,1.2
			c0.7,0.8,1.1,2.4,1.1,4.6c0,2.1-0.2,3.6-0.6,4.5c-0.5,1-1.1,1.1-1.5,1.1c-0.5,0-0.8-0.2-0.9-0.6c-0.2-0.6-0.3-1.1-0.3-1.6
			c0-0.2,0-0.6,0.3-1.4c0.2-0.6,0.5-1,0.9-1.3c0.6-0.5,1-1.1,1-1.9V579l-0.3-0.2c-1.1-0.6-2.2-0.3-3.2,0.8c-0.7,0.7-1.1,1.5-1.3,2.3
			c-0.2,0.8-0.3,1.5-0.3,2.1c0,1.6,0.4,2.9,1.2,3.8c0.8,0.9,1.8,1.4,3.1,1.4c1.4,0,2.7-0.7,3.7-1.9c1-1.3,1.5-3.5,1.5-6.7
			c0-2.7-0.6-4.9-1.9-6.4c-1.3-1.6-3-2.4-5.2-2.4c-2.1,0-4.4,0.8-6.9,2.3s-4.7,3.8-6.6,6.8s-3.5,6.6-4.7,10.7
			c-1.2,4.1-1.8,7.8-1.8,10.9c0,4.2,1,7.6,3.1,10.1c2.1,2.6,5,3.9,8.8,3.9c4,0,7.3-1.1,9.8-3.2c1.9-1.6,3.3-2.9,4.3-4.1
			c0.2,1.7,0.8,3.2,1.7,4.5c1.3,1.8,2.9,2.7,4.9,2.7c2.9,0,5.4-1.7,7.6-5c0.6-0.9,1.2-1.9,1.6-2.8c1.3,0.5,2.9,0.8,4.5,0.8l0,0
			c3-0.1,5.3-1.1,6.9-2.9c0.5-0.5,0.8-0.9,1.1-1.3l0.1-0.1c0.2-0.3,0.5-0.8,0.8-1.4c0.3-0.6,1.5-2.4,3.4-5.4
			c1.9-2.9,2.9-3.4,3.4-3.4c0.2,0,0.4,0,0.4,0.6c0,0.1,0,0.5-0.2,1.6c-0.2,0.9-0.6,2.7-1.3,5.5s-1.1,5.5-1.2,8c0,2,0.3,3.5,1.1,4.4
			c0.7,1,1.7,1.5,3,1.5c1.7,0,3.3-0.7,4.7-2s2.6-3.9,3.9-7.8c0-0.1,0.1-0.3,0.1-0.4c0.1,0.1,0.2,0.2,0.3,0.4
			c1.3,1.4,3.1,2.2,5.4,2.2c2.7,0,5-1.4,6.9-4.2c0.1-0.1,0.2-0.2,0.2-0.3c0.2-0.2,0.3-0.5,0.5-0.8c-1.1,7.8-1.8,12.6-2,14.3
			c-2.1,1.8-4.1,3.8-6.2,6.1c-2.3,2.5-3.5,5.2-3.5,7.8c0,2.1,0.5,3.7,1.5,4.9s2.1,1.8,3.2,1.8c1.6,0,3-0.8,4.2-2.4
			c1.2-1.6,2.1-5,2.8-10.4c0.2-1.8,0.5-3.9,0.8-6.2c2-1.7,4.2-3.6,6.8-5.7c1.5-1.3,3-2.7,4.3-4.2c0.3,0.7,0.6,1.3,0.9,1.9
			c1.8,3.4,4.6,5.2,8.4,5.2c2.8,0,5.6-1.6,8.2-4.8c0.5-0.7,1-1.3,1.5-1.9c0.3,1.8,1.1,3.2,2.3,4.3c1.6,1.5,4.1,2.3,7.4,2.3
			c3.2,0,6.4-1.3,9.5-3.9c1.3-1.1,2.5-2.1,3.5-3.2c0.3,0.6,0.6,1.3,0.9,1.9c1.8,3.4,4.6,5.2,8.4,5.2c2.8,0,5.6-1.6,8.2-4.8
			c2.6-3.1,4-5.3,4.5-6.6L-1144.2,605.5z M-1267.8,610.2c-1.6,2.6-3.4,3.9-5.4,3.9c-0.9,0-1.7-0.5-2.4-1.7c-0.8-1.2-1.2-2.6-1.2-4.3
			c0-3,0.9-5.9,2.6-8.5c1.5-2.4,3.2-3.7,4.9-3.9c-0.5,1.3-0.8,2.8-0.8,4.5c0,3.1,1,5.5,3.1,7.2c0.1,0.1,0.3,0.3,0.4,0.4
			C-1266.9,608.6-1267.3,609.4-1267.8,610.2z M-1265.5,604.5c-1-1.2-1.5-2.6-1.5-4.3c0-1.2,0.2-2.2,0.5-3.1c0,0.1,0.1,0.1,0.1,0.2
			c0.7,1.2,1.1,2.6,1.1,4.3C-1265.3,602.6-1265.4,603.6-1265.5,604.5z M-1222.8,625.6c-0.8,6.1-1.6,8.2-2.1,8.9
			c-0.6,0.9-1.3,1.4-1.9,1.4c-0.1,0-0.4-0.1-1-0.8c-0.4-0.6-0.7-1.5-0.7-2.7c0-1.7,0.8-3.5,2.3-5.4c1.1-1.3,2.3-2.6,3.7-3.9
			C-1222.6,623.9-1222.7,624.8-1222.8,625.6z M-1206.3,603.3c-0.1-0.7-0.1-1.5-0.1-2.4c0-1.4,0.4-2.7,1-3.7c0.7-1,1.4-1.4,2.1-1.4
			c0.7,0,0.9,0.3,1,0.7c0,0.4-0.3,1.2-1.2,2.8C-1204.1,600.4-1205.1,601.8-1206.3,603.3z M-1164.7,603.3c-0.1-0.7-0.1-1.5-0.1-2.4
			c0-1.4,0.4-2.7,1-3.7c0.7-1,1.4-1.4,2.1-1.4s0.9,0.3,1,0.7c0,0.4-0.3,1.2-1.2,2.8C-1162.6,600.4-1163.5,601.8-1164.7,603.3z"/>
		<path id="XMLID_82_" class="st1" d="M-1140.3,611.6c-0.3,0-0.7,0.1-1.1,0.2l-0.2,0.1l-0.1,0.2c-1.1,3-2.4,6.3-4,9.8
			c-0.4,1.3-0.5,1.8-0.5,2.1c0,0.5,0.3,0.8,0.8,0.8c0.2,0,0.5-0.1,1-0.3c1.1-0.7,2.1-2.2,3.1-4.4c0.8-1.9,1.7-4.1,2.5-6.6v-0.1v-0.1
			C-1138.8,611.7-1139.8,611.6-1140.3,611.6z"/>
		<path id="XMLID_83_" class="st1" d="M-1003.1,587.2c2.3,0,4.7-1.2,7.1-3.5c3.6-3.5,3.6-3.8,3.6-4.1c0-0.7-0.5-1.2-1.2-1.2
			c-1,0-1.6,0.2-1.9,0.6c-0.2,0.2-1.2,1.2-2.9,2.7c-1.6,1.5-3.1,2.3-4.2,2.5c-0.8,0-1.6-0.6-2.5-1.7c-0.9-1.2-1.4-2.1-1.5-2.8v-0.1
			c-0.2-0.8-0.8-1.2-1.6-1.2l0,0c-0.9,0.1-1.5,0.6-1.5,1.5c0,1.3,0.6,2.7,1.9,4.5C-1006.5,586.2-1004.9,587.1-1003.1,587.2z"/>
		<path id="XMLID_84_" class="st1" d="M-983.2,585.6c0.6,0,1.2-0.2,1.7-0.7s0.7-1,0.7-1.7s-0.2-1.1-0.6-1.5
			c-0.8-0.8-2.2-0.8-3.2,0.1c-0.5,0.5-0.7,1-0.7,1.7c0,0.6,0.2,1.1,0.6,1.5C-984.3,585.4-983.8,585.6-983.2,585.6z"/>
		<path id="XMLID_87_" class="st1" d="M-971.2,603.3c-0.4-0.2-0.6-0.2-0.8-0.2c-0.4,0-1,0.2-1.4,1.1c-4.9,8.1-7.7,9.8-9.1,9.8
			c-1.2,0-2.1-0.5-2.7-1.5c-0.7-1.1-1-2.5-1-4.2c0-2.1,0.2-4.1,0.5-6.1c0.4-1.9,0.8-3.6,1.2-5c0.4-1.5,0.6-2.6,0.6-3.6
			c0-0.6-0.4-1.2-1.3-1.2c-1.4,0-2,1.8-2.2,2.4c-1.3,3.3-2.3,5.7-3.2,7.1c-0.7,1.1-1.1,1.9-1.4,2.4c-0.1,0.1-0.1,0.1-0.2,0.2l0,0
			c-1.4,2.1-3.5,4.2-6.2,6.3s-5.2,3.1-7.4,3.1c-1.8,0-3.4-0.5-4.8-1.4c-1.3-0.9-2-2.3-2-4.3c0-2.4,0.9-5.2,2.8-8.3
			c1.8-3,3.6-4.5,5.3-4.5c0.5,0,0.7,0.2,0.8,0.3c0.2,0.3,0.3,0.6,0.3,0.9c0,0.6-0.2,1.5-0.7,2.6v0.2c0,1.5,1,1.6,1.3,1.6
			c1,0,1.7-0.6,2-1.6c0.3-1.1,0.5-2.2,0.5-3c0-1.2-0.4-2.2-1.1-3c-0.7-0.8-1.7-1.2-2.9-1.2c-2.9,0-5.6,1.9-7.9,5.6
			c-1.4,2.2-2.3,4.3-2.9,6.3c-0.9,1.5-2.2,3.4-3.9,5.9c-1.6,2.4-3.2,3.7-4.7,3.7c-1.2,0-2-0.3-2.6-1c-0.6-0.7-0.9-2.1-0.9-4.1
			c0-1.5,0.2-3.5,0.6-5.8c0.4-2.4,0.9-5.4,1.4-8.7c0-0.1,0-0.3,0-0.4c0-0.9-0.5-1.4-1.5-1.4c-0.6,0-1.6,0.3-1.8,2l-0.8,5
			c-0.6,3.9-1.7,7.3-3.4,10.2c-1.6,2.8-3.3,4.2-4.9,4.2c-1.1,0-1.8-0.4-2.3-1.2c-0.5-0.9-0.7-2.3-0.7-4.3c0-1.8,0-3.2,0.1-4.2
			c0.1-1,0.7-4.4,1.9-10.1c0-0.1,0-0.3,0-0.4c0-0.8-0.5-1.3-1.4-1.3c-0.6,0-1.6,0.2-1.9,1.8c-0.2,1.3-0.5,2.7-0.9,4.1
			c-0.3,1.3-0.8,2.6-1.3,3.6s-0.8,1.7-1,2c-0.1,0.1-0.3,0.3-0.4,0.5c-0.8,1.4-2.1,3.4-3.9,6c-1.6,2.5-3.3,3.7-5,3.7
			c-0.8,0-1.5-0.4-2.3-1.1c-0.8-0.7-1.1-2.1-1.1-4.1c0-1.2,0.1-2.4,0.3-3.6s0.3-2.4,0.3-3.7c0-2.5-0.6-4.6-1.8-6.4
			c-1.2-1.8-2.8-2.7-4.8-2.7c-2.9,0-5.5,1.7-7.7,4.9c-1.4,2.1-2.4,4.3-2.9,6.6l0,0c-2.5,3.8-4.3,6.4-5.4,7.9c-1,1.3-2.1,2-3.1,2
			s-1.6-0.3-2.1-0.9c-0.3-0.4-0.7-1.4-0.7-3.8c0-1.1,0.3-3.4,0.9-6.7c0.6-3.4,0.9-5.8,0.9-7.3c-0.3-1.8-1.4-2.8-3.3-2.9
			c-3,0-5.4,1-7.1,2.9c-0.7-2.1-2.2-2.6-3.3-2.7c-2.7,0-5.1,1.8-7,5.3c-2.7,4.8-3.4,6-3.5,6.1c-0.3,0.4-0.4,0.7-0.4,1
			c0,0.4,0.2,1.3,1.7,1.3c0.3,0,0.8-0.1,1.1-0.7c0.1-0.1,0.2-0.2,1.8-3c1-1.8,2-3.4,2.8-4.7c0.8-1.2,1.8-1.9,3.2-2.1
			c0.5,0.1,0.5,0.3,0.6,0.4c0.1,0.2,0.2,0.8,0.2,1.9c0,0.9-0.2,2.9-0.7,5.9s-0.9,5.5-1.1,7.4c-0.3,1.9-0.4,3.3-0.4,4
			c0,1.5,0.9,1.7,1.2,1.7c0.8,0,1.9-0.5,2.2-2.7c0.6-3.6,1-7,1.4-10.2c0.4-3,1.1-5.3,2.3-6.8c1.2-1.4,2.7-2.1,4.7-2.1
			c0.1,0,0.3,0,0.3,0.8c0,0.5-0.2,1.8-0.9,5.7c-0.6,3.2-1,5.7-1,7.3c0,3,0.6,5,1.7,6.1c1.1,1.1,2.6,1.6,4.4,1.6
			c1.4,0,2.7-0.5,3.8-1.4c0.9-0.7,2.3-2.5,4.3-5.6c0.3,1.6,0.8,3,1.7,4.3c1.3,1.8,2.9,2.7,4.9,2.7c2.8,0,5.4-1.7,7.6-4.9
			c0.3,1.1,0.8,2.1,1.5,2.8c1.2,1.4,2.8,2.1,4.7,2.1c2.4,0,4.4-1.1,6.1-3.2c1.6-2,2.9-3.9,3.9-5.6c0.1-0.2,0.2-0.3,0.3-0.5
			c0,0.3,0,0.5,0,0.8c0,3.1,0.5,5.2,1.6,6.5s2.7,2,4.7,2c2.9,0,5.4-1.8,7.4-5.4c0.3,1.5,0.8,2.6,1.6,3.5c1.2,1.3,2.8,1.9,4.8,1.9
			c2.2,0,4.1-1.1,5.8-3.2c0.8-1,1.6-2.1,2.4-3.3c0.3,1.7,1.1,3.1,2.3,4.2c1.6,1.5,4.1,2.3,7.4,2.3c3.2,0,6.4-1.3,9.5-3.9
			c3.1-2.5,5.4-5,6.8-7.3c0.1-0.1,0.2-0.2,0.2-0.3c-0.1,1.1-0.2,2-0.2,2.7c0,2.6,0.5,4.7,1.6,6.3c1.1,1.7,2.9,2.5,5.3,2.5
			c3.5,0,7.4-3.9,11.9-11.9c0.1-0.3,0.2-0.5,0.2-0.7C-970.4,603.9-970.7,603.5-971.2,603.3z M-1062.6,610.2
			c-1.6,2.6-3.4,3.9-5.4,3.9c-0.9,0-1.7-0.5-2.4-1.7c-0.8-1.2-1.2-2.6-1.2-4.3c0-1,0.1-2.1,0.3-3.1c0.2-0.4,0.2-0.6,0.2-0.8v-0.1
			c0.4-1.6,1.1-3.1,2-4.6c1.7-2.6,3.5-3.9,5.4-3.9c0.9,0,1.7,0.5,2.4,1.7c0.7,1.2,1.1,2.6,1.1,4.3
			C-1060,604.6-1060.9,607.5-1062.6,610.2z"/>
		<path id="XMLID_90_" class="st1" d="M-903.2,604c-0.9,0-1.4,0.4-1.6,0.8c-3.7,6-7,9.1-9.8,9.1c-1.4,0-2.7-0.5-3.9-1.6
			c-1.2-1-2.1-2.7-2.7-5.1c2.4-3,4.1-5.4,4.9-6.9c0.9-1.6,1.3-2.9,1.3-4c0-1.7-0.7-3.7-4.2-3.7c-2.1,0-3.7,0.8-4.8,2.5
			c-1.1,1.6-1.6,3.5-1.6,5.7c0,2.1,0.3,4.1,0.7,6.1c-1.1,1.5-2.2,2.6-3.2,3.4c-1.2,0.9-2.4,1.7-3.7,2.3c0.5-1,0.8-2.2,0.8-3.6
			c0-2.2-1.1-4.5-3.1-6.7c-1.9-2-2.9-3.7-2.9-5c0-0.6,0.2-1.2,0.6-1.6c0.6-0.6,0.9-1.3,0.9-1.9c0-0.3-0.1-0.6-0.2-1
			c-0.3-0.6-0.6-0.7-0.9-0.7c-0.5,0-0.9,0.1-1.2,0.4c-0.2,0.2-0.6,0.6-2.4,2.7c-1.3,1.6-2.5,3.2-3.6,4.8c-1.1,1.6-1.8,2.6-2.1,3
			c-0.3,0.4-0.5,0.7-0.6,0.9c-0.3,0.4-0.4,0.7-0.4,1c0,0.1,0,0.3,0.1,0.3c0.1,0.4,0.5,1,1.7,1c0.3,0,0.8-0.1,1.1-0.7
			c0.1-0.2,0.4-0.6,0.8-1.2c0.4-0.6,1.5-2.2,3.4-4.8c0.5,1.5,1.4,2.9,2.6,4.1c1.3,1.4,2.2,2.5,2.5,3.2s0.5,1.4,0.5,2
			c0,0.8-0.3,1.7-0.9,2.8c-0.6,1-1.3,1.7-2,2c-0.8,0.3-1.4,0.4-1.9,0.4c-1.1,0-1.9-0.3-2.4-0.8s-0.8-1.1-0.8-1.6
			c0-0.7,0.1-1,0.1-1.1c0.1-0.3,0.1-0.6,0.1-0.8c0-1-0.7-1.1-0.9-1.1c-0.6,0-1.2,0.3-1.6,0.8c-0.4,0.5-0.7,1.3-0.7,2.3
			c0,1.3,0.5,2.5,1.6,3.5c1,1.1,2.6,1.6,4.6,1.6c1.8,0,3.8-0.3,6-0.9c2.2-0.6,4.4-1.7,6.4-3.4c1.1-0.9,2-1.7,2.8-2.5
			c0.2,0.5,0.5,1,0.7,1.6c1.8,3.4,4.6,5.2,8.4,5.2c2.8,0,5.6-1.6,8.2-4.8c2.6-3.1,4-5.3,4.5-6.6v-0.2
			C-901.9,604.1-902.9,604-903.2,604z M-922.4,603.3c-0.1-0.7-0.1-1.5-0.1-2.4c0-1.4,0.4-2.7,1-3.7c0.7-1,1.4-1.4,2.1-1.4
			c0.7,0,0.9,0.3,1,0.7c0,0.4-0.3,1.2-1.2,2.8C-920.2,600.4-921.2,601.8-922.4,603.3z"/>
		<path id="XMLID_91_" class="st1" d="M-889.4,572.9c-0.6-0.6-1.5-0.6-2.1-0.1c-0.3,0.3-0.5,0.6-0.5,0.9
			c-4.5,31.6-4.5,31.7-4.5,31.8c0,0.4,0.1,0.8,0.4,1.1c0.3,0.3,0.6,0.5,1.1,0.5c0.4,0,0.8-0.1,1.1-0.4s0.5-0.6,0.5-0.9
			c4.5-31.6,4.5-31.7,4.5-31.8C-889,573.6-889.1,573.2-889.4,572.9z"/>
		<path id="XMLID_92_" class="st1" d="M-896,612.4c-0.7,0-1.3,0.3-1.9,0.8c-0.5,0.5-0.8,1.2-0.8,1.9s0.2,1.3,0.7,1.7
			c0.4,0.4,1,0.7,1.7,0.7s1.3-0.3,1.9-0.8c0.5-0.5,0.8-1.2,0.8-1.9c0-0.7-0.2-1.3-0.7-1.7C-894.7,612.6-895.3,612.4-896,612.4z"/>
	</g>
</g>
<image style="overflow:visible;enable-background:new    ;" width="801" height="801" id="XMLID_5_" xlink:href="8FC43AA8.jpeg"  transform="matrix(0.9988 0 0 0.9988 1529.6379 -64.5551)">
</image>
<g id="XMLID_124_">
	<path id="XMLID_2_" class="st2" d="M482.7,144.7H367.3c-9.1,0-16.5-7.4-16.5-16.5V12.8c0-9.1,7.4-16.5,16.5-16.5h115.4
		c9.1,0,16.5,7.4,16.5,16.5v115.4C499.2,137.3,491.8,144.7,482.7,144.7z"/>
	<g id="XMLID_4_">
		<circle id="XMLID_3_" class="st3" cx="388.3" cy="33.9" r="18.6"/>
		<circle id="XMLID_7_" class="st3" cx="388.3" cy="107.2" r="18.6"/>
		<circle id="XMLID_22_" class="st3" cx="461.7" cy="107.2" r="18.6"/>
		<circle id="XMLID_6_" class="st3" cx="461.7" cy="33.9" r="18.6"/>
	</g>
</g>
<g id="XMLID_126_">
	<path id="XMLID_120_" class="st2" d="M900.5,200H785.1c-9.1,0-16.5-7.4-16.5-16.5V68.1c0-9.1,7.4-16.5,16.5-16.5h115.4
		c9.1,0,16.5,7.4,16.5,16.5v115.4C917,192.6,909.6,200,900.5,200z"/>
	<g id="XMLID_111_">
		<circle id="XMLID_119_" class="st4" cx="806.1" cy="89.2" r="18.6"/>
		<circle id="XMLID_121_" class="st4" cx="842.8" cy="125.2" r="18.6"/>
		<circle id="XMLID_118_" class="st4" cx="806.1" cy="162.5" r="18.6"/>
		<circle id="XMLID_117_" class="st4" cx="879.5" cy="162.5" r="18.6"/>
		<circle id="XMLID_112_" class="st4" cx="879.5" cy="89.2" r="18.6"/>
	</g>
</g>
<g id="XMLID_122_">
	<path id="XMLID_142_" class="st2" d="M265.9,200H150.5c-9.1,0-16.5-7.4-16.5-16.5V68.1c0-9.1,7.4-16.5,16.5-16.5h115.4
		c9.1,0,16.5,7.4,16.5,16.5v115.4C282.3,192.6,275,200,265.9,200z"/>
	<g id="XMLID_123_">
		<circle id="XMLID_141_" class="st5" cx="244.9" cy="89.2" r="18.6"/>
		<circle id="XMLID_127_" class="st5" cx="208.2" cy="125.2" r="18.6"/>
		<circle id="XMLID_125_" class="st5" cx="171.5" cy="162.5" r="18.6"/>
	</g>
</g>
<g id="XMLID_145_">
	<path id="XMLID_150_" class="st2" d="M-67.8,264.3h-115.4c-9.1,0-16.5-7.4-16.5-16.5V132.4c0-9.1,7.4-16.5,16.5-16.5h115.4
		c9.1,0,16.5,7.4,16.5,16.5v115.4C-51.3,256.9-58.7,264.3-67.8,264.3z"/>
	<g id="XMLID_146_">
		<circle id="XMLID_149_" class="st6" cx="-88.8" cy="153.4" r="18.6"/>
		<circle id="XMLID_147_" class="st6" cx="-162.2" cy="226.7" r="18.6"/>
	</g>
</g>
<g id="XMLID_148_">
	<path id="XMLID_154_" class="st2" d="M-365.1,366.3h-115.4c-9.1,0-16.5-7.4-16.5-16.5V234.4c0-9.1,7.4-16.5,16.5-16.5h115.4
		c9.1,0,16.5,7.4,16.5,16.5v115.4C-348.7,358.9-356,366.3-365.1,366.3z"/>
	<g id="XMLID_151_">
		<circle id="XMLID_153_" class="st7" cx="-422.8" cy="292.1" r="18.6"/>
	</g>
</g>
<g id="XMLID_143_">
	<g id="XMLID_136_">
		<path class="st2" d="M-206.5,493.9c-8.5,0-15.5-6.9-15.5-15.4V363.1c0-8.5,7-15.5,15.5-15.5h115.4c8.5,0,15.5,7,15.5,15.5v115.4
			c-0.1,8.6-6.9,15.4-15.5,15.4H-206.5z"/>
		<path d="M-91.1,348.6c8,0,14.5,6.5,14.5,14.5l0,115.4c-0.1,8.1-6.5,14.4-14.5,14.4h-115.4c-8,0-14.5-6.5-14.5-14.4V363.1
			c0-8,6.5-14.5,14.5-14.5H-91.1 M-91.1,346.6h-115.4c-9.1,0-16.5,7.4-16.5,16.5v115.4c0,9.1,7.4,16.4,16.5,16.4h115.4
			c9.1,0,16.4-7.3,16.5-16.4V363.1C-74.6,354-82,346.6-91.1,346.6L-91.1,346.6z"/>
	</g>
	<g id="XMLID_110_">
		<g id="XMLID_129_">
			<g id="XMLID_135_">
				<path class="st8" d="M-186.8,391.9c-9.7,0-17.6-7.9-17.6-17.6s7.9-17.6,17.6-17.6s17.6,7.9,17.6,17.6S-177.1,391.9-186.8,391.9z
					"/>
				<path d="M-186.8,357.7c9.2,0,16.6,7.4,16.6,16.6c0,9.2-7.4,16.6-16.6,16.6s-16.6-7.4-16.6-16.6
					C-203.4,365.1-196,357.7-186.8,357.7 M-186.8,355.7c-10.3,0-18.6,8.3-18.6,18.6s8.3,18.6,18.6,18.6c10.3,0,18.6-8.3,18.6-18.6
					S-176.5,355.7-186.8,355.7L-186.8,355.7z"/>
			</g>
			<g id="XMLID_134_">
				<path class="st8" d="M-186.8,485.4c-9.7,0-17.6-7.9-17.6-17.6c0-9.7,7.9-17.6,17.6-17.6s17.6,7.9,17.6,17.6
					C-169.2,477.5-177.1,485.4-186.8,485.4z"/>
				<path d="M-186.8,451.2c9.2,0,16.6,7.4,16.6,16.6c0,9.2-7.4,16.6-16.6,16.6s-16.6-7.4-16.6-16.6
					C-203.4,458.6-196,451.2-186.8,451.2 M-186.8,449.2c-10.3,0-18.6,8.3-18.6,18.6s8.3,18.6,18.6,18.6c10.3,0,18.6-8.3,18.6-18.6
					S-176.5,449.2-186.8,449.2L-186.8,449.2z"/>
			</g>
			<g id="XMLID_137_">
				<path class="st8" d="M-186.8,438.7c-9.7,0-17.6-7.9-17.6-17.6s7.9-17.6,17.6-17.6s17.6,7.9,17.6,17.6S-177.1,438.7-186.8,438.7z
					"/>
				<path d="M-186.8,404.5c9.2,0,16.6,7.4,16.6,16.6c0,9.2-7.4,16.6-16.6,16.6s-16.6-7.4-16.6-16.6
					C-203.4,411.9-196,404.5-186.8,404.5 M-186.8,402.5c-10.3,0-18.6,8.3-18.6,18.6c0,10.3,8.3,18.6,18.6,18.6
					c10.3,0,18.6-8.3,18.6-18.6C-168.2,410.8-176.5,402.5-186.8,402.5L-186.8,402.5z"/>
			</g>
		</g>
		<g id="XMLID_130_">
			<g id="XMLID_140_">
				<path class="st8" d="M-110.9,391.3c-9.7,0-17.6-7.9-17.6-17.6s7.9-17.6,17.6-17.6c9.7,0,17.6,7.9,17.6,17.6
					S-101.2,391.3-110.9,391.3z"/>
				<path d="M-110.9,357.1c9.2,0,16.6,7.4,16.6,16.6c0,9.2-7.4,16.6-16.6,16.6s-16.6-7.4-16.6-16.6
					C-127.5,364.5-120.1,357.1-110.9,357.1 M-110.9,355.1c-10.3,0-18.6,8.3-18.6,18.6c0,10.3,8.3,18.6,18.6,18.6s18.6-8.3,18.6-18.6
					C-92.3,363.4-100.6,355.1-110.9,355.1L-110.9,355.1z"/>
			</g>
			<g id="XMLID_138_">
				<path class="st8" d="M-110.9,484.8c-9.7,0-17.6-7.9-17.6-17.6s7.9-17.6,17.6-17.6c9.7,0,17.6,7.9,17.6,17.6
					S-101.2,484.8-110.9,484.8z"/>
				<path d="M-110.9,450.6c9.2,0,16.6,7.4,16.6,16.6c0,9.2-7.4,16.6-16.6,16.6s-16.6-7.4-16.6-16.6
					C-127.5,458-120.1,450.6-110.9,450.6 M-110.9,448.6c-10.3,0-18.6,8.3-18.6,18.6c0,10.3,8.3,18.6,18.6,18.6s18.6-8.3,18.6-18.6
					C-92.3,456.9-100.6,448.6-110.9,448.6L-110.9,448.6z"/>
			</g>
			<g id="XMLID_133_">
				<path class="st8" d="M-110.9,438.1c-9.7,0-17.6-7.9-17.6-17.6c0-9.7,7.9-17.6,17.6-17.6c9.7,0,17.6,7.9,17.6,17.6
					C-93.3,430.2-101.2,438.1-110.9,438.1z"/>
				<path d="M-110.9,403.9c9.2,0,16.6,7.4,16.6,16.6s-7.4,16.6-16.6,16.6s-16.6-7.4-16.6-16.6S-120.1,403.9-110.9,403.9
					 M-110.9,401.9c-10.3,0-18.6,8.3-18.6,18.6s8.3,18.6,18.6,18.6s18.6-8.3,18.6-18.6S-100.6,401.9-110.9,401.9L-110.9,401.9z"/>
			</g>
		</g>
	</g>
</g>
</svg>
