<?xml version="1.0" encoding="utf-8"?>
<!-- Generator: Adobe Illustrator 19.0.0, SVG Export Plug-In . SVG Version: 6.00 Build 0)  -->
<svg version="1.1" id="Layer_1" xmlns="http://www.w3.org/2000/svg" xmlns:xlink="http://www.w3.org/1999/xlink" x="0px" y="0px"
	 viewBox="0 0 424.1 533.2" style="enable-background:new 0 0 424.1 533.2;" xml:space="preserve">
<style type="text/css">
	.st0{fill:#FCEE23;}
	.st1{fill:#1D0E0E;}
</style>
<g id="XMLID_49_">
	<g>
		<g id="XMLID_1_">
			<path id="XMLID_114_" d="M324.8,193.7c2.5,47.2-29.2,80.3-29.2,80.3c-31.8,25.3-33.2,74.5-33.2,74.5L163,360.4
				c-0.7-53.8-20.6-73.1-20.6-73.1c-5.4-4.8-12.6-11.9-19.6-21.7c-5.7-8-23.9-34.4-23.8-69.2c0.1-35.2,19-69.6,48.1-89.8
				c19.3-13.5,42.6-20.4,65.9-20.4c24.1,0,48.2,7.4,68,22.3C322,139.5,324.5,188.1,324.8,193.7z M299.9,244.6
				c8.7-16.5,12.6-33.3,11.7-50.2c-0.5-9.3-2.6-19.8-5.9-29.4c-6.6-19.1-17.6-34.5-32.6-45.9c-8.5-6.4-18.1-11.4-28.4-14.7
				c-10.1-3.3-20.7-4.9-31.5-4.9c-21,0-41.7,6.4-58.3,18c-12.7,8.8-23.3,20.9-30.8,34.8c-7.5,14-11.6,29.3-11.6,44.3
				c-0.1,13,2.8,26.2,8.6,39.3c4.9,11.2,10.6,19.2,12.7,22.2c5,7.1,10.9,13.6,17.5,19.4l0.2,0.2l0.2,0.2c1.1,1.1,7.1,7.3,12.9,20.6
				c5.9,13.4,9.6,29.2,11,47.2l74.7-8.9c2.5-17.6,10.5-51.2,36.2-72.3C288.3,262.4,294.2,255.3,299.9,244.6z"/>
			<path id="XMLID_113_" class="st0" d="M311.6,194.4c0.9,16.9-3.1,33.7-11.7,50.2c-5.7,10.7-11.6,17.9-13.3,19.8
				c-25.7,21.1-33.8,54.7-36.2,72.3l-74.7,8.9c-1.4-17.9-5.1-33.8-11-47.2c-5.8-13.2-11.8-19.4-12.9-20.6l-0.2-0.2l-0.2-0.2
				c-6.6-5.8-12.5-12.3-17.5-19.4c-2.1-3-7.8-11-12.7-22.2c-5.8-13.1-8.6-26.3-8.6-39.3c0.1-15,4.1-30.3,11.6-44.3
				c7.5-13.9,18.1-25.9,30.8-34.8c16.6-11.6,37.3-18,58.3-18c10.8,0,21.4,1.6,31.5,4.9c10.4,3.3,20,8.3,28.4,14.7
				c15,11.4,26,26.8,32.6,45.9C309,174.6,311.1,185,311.6,194.4z"/>
		</g>
		<g>
			<path id="XMLID_21_" d="M78.3,342.4c-3.3-0.1-6.2-2.1-7.9-5.4c-1.7-3.3-1.5-6.8,0.9-9.7c2.3-2.7,4.9-5.1,7.6-7.5
				c11.2-10.1,22.5-20.2,33.8-30.3c0.2-0.2,0.4-0.3,0.6-0.5c4-3.4,8.4-3.9,11-1.3c2.5,2.6,2,6.7-1.4,10.6
				c-11.5,12.9-23,25.8-34.6,38.7C85.7,339.9,83,342.4,78.3,342.4z"/>
			<path id="XMLID_20_" d="M344.6,343.3c-2.6-1.8-5.7-3.2-7.8-5.4c-8.6-9.2-16.9-18.7-25.3-28.1c-3.1-3.5-6.3-7-9.4-10.5
				c-0.8-0.9-1.5-1.7-2.1-2.7c-1.8-2.9-2.5-5.9-0.1-8.8c2-2.4,5.9-2.6,9-0.1c4.7,3.7,9.1,7.8,13.5,11.8c9.7,8.6,19.4,17.2,28.9,26.1
				c5.3,5,4.3,12.5-1.8,15.7c-1.3,0.7-2.8,1-4.3,1.4C345,342.9,344.8,343.1,344.6,343.3z"/>
			<path id="XMLID_19_" d="M356.1,64.6c-1.4,2.5-2.3,5.4-4.2,7.1c-13.6,12.5-27.4,24.7-41.1,37c-1.1,1-2.6,2.1-4,2.1
				c-2.1,0-4.8-0.2-6.2-1.5c-1.2-1.2-1.5-3.9-1.3-5.9c0.2-1.6,1.4-3.2,2.6-4.5c11.8-13.3,23.6-26.6,35.6-39.8c5-5.5,11-5.8,15.2-0.9
				C354.2,59.8,354.8,62.1,356.1,64.6z"/>
			<path id="XMLID_18_" d="M124.4,104.8c0.1,5.6-3.7,8.5-7.7,7c-1.9-0.7-3.6-1.9-5.1-3.2C98.9,97.5,86.3,86.2,73.7,74.9
				c-1.3-1.2-2.6-2.5-3.6-3.9c-3.1-4.2-2.6-8.9,1-12.4c3.5-3.4,8.1-3.7,12.2-0.9c1.2,0.9,2.4,1.9,3.4,3.1
				c11.5,12.9,23.1,25.7,34.5,38.7C122.8,101.3,123.7,103.7,124.4,104.8z"/>
			<path id="XMLID_17_" d="M49.4,207.7c-7.9,0.4-16.7,0.9-25.6,1.1c-6,0.2-10-3.5-10.3-8.9c-0.3-6.1,3.9-10.5,10.5-10.2
				c10.8,0.4,21.6,1.1,32.3,1.7c6.7,0.4,13.4,0.8,20.2,1.2c0.9,0.1,1.8,0.1,2.7,0.2c4.4,0.5,7.7,3.2,7.7,6.5
				c0.1,3.4-2.9,6.2-7.6,6.6c-7.6,0.6-15.2,0.9-22.8,1.3C54.5,207.4,52.5,207.5,49.4,207.7z"/>
			<path id="XMLID_16_" d="M377.7,190.9c7.2-0.4,14.4-0.9,21.7-1.1c6.8-0.2,11.2,3.7,11.1,9.7c0,5.9-4.4,9.8-11.3,9.5
				c-17.9-0.9-35.7-1.9-53.6-2.9c-0.8,0-1.5-0.2-2.3-0.3c-4-1-6.4-3.5-6.2-6.6c0.2-3.1,3.1-5.9,7.1-6.2c5.4-0.5,10.9-0.7,16.3-1
				c5.7-0.3,11.4-0.6,17.1-0.9C377.7,190.9,377.7,190.9,377.7,190.9z"/>
			<path id="XMLID_15_" d="M221.4,32c-0.6,10.8-1.2,21.5-1.7,32.3c0,0.4,0,0.8-0.1,1.1c-0.4,4.4-3.2,7.7-6.4,7.9
				c-3.3,0.2-6.3-2.8-6.6-7.5c-0.8-9.5-1.3-19-1.9-28.5c-0.5-8.2-0.9-16.5-1.2-24.7c-0.1-2.2,0-4.6,0.6-6.7
				c1.3-4.3,5.8-6.6,10.3-5.9c4.6,0.7,8.1,4.4,8.1,9.2c-0.1,7.6-0.6,15.2-1,22.8C221.5,32,221.4,32,221.4,32z"/>
		</g>
		<polygon id="XMLID_14_" points="161.6,374.7 161.8,385.6 261.5,372.6 260.7,360.8 161.6,373.5 		"/>
		<polygon id="XMLID_13_" points="161.7,399.7 161.9,410.7 261.7,397.7 260.9,385.8 161.7,398.6 		"/>
		<path id="XMLID_12_" d="M163.7,423.1l98-12.4c0,0-14.3,34.4-44.6,37.2C186.7,450.8,163.7,423.1,163.7,423.1z"/>
		<g>
			<path id="XMLID_11_" class="st1" d="M270.8,207.5c-0.9,0.4-1.6,0.8-2.4,1.2c-2.5,1.3-5.3,0.4-6.8-2c-1.3-2.2-0.6-5.1,1.6-6.6
				c0.9-0.6,1.9-1,2.8-1.5c3.9-2,7.7-3.9,11.6-5.8c3.2-1.6,6.6-0.1,7.4,3.2c0.5,2.1-0.4,4.7-2.4,5.4c-2.9,1-3.2,2.9-3,5.6
				c1.1,19.8-4.7,37.3-17.9,52.1c-10.9,12.4-24.7,20-41.1,21.9c-23.1,2.8-42.7-4.8-58.4-22c-8.1-8.9-13.4-19.4-16.2-31.2
				c-1.8-7.8-2.5-15.6-1.5-23.6c0.1-0.5-0.4-1.2-0.8-1.5c-0.7-0.6-1.6-0.9-2.4-1.3c-2.2-1.3-3.1-4-2.1-6.3c1-2.3,3.6-3.5,6-2.8
				c0.7,0.2,1.4,0.5,2,0.9c4.2,2.1,8.4,4.2,12.6,6.4c3.4,1.7,4.2,5.2,2,7.9c-1.6,1.9-4,2.4-6.2,1.3c-0.7-0.4-1.5-0.8-2.4-1.2
				c-0.1,0.6-0.2,1.1-0.2,1.5c-0.3,13.6,2.9,26.3,10.6,37.6c5.7,8.4,13.1,15.1,22.3,19.8c11.7,6,24.1,7.7,36.9,5.2
				c17.1-3.3,30.1-12.9,39.2-27.7C268.8,232.9,271.8,219.7,270.8,207.5z"/>
			<path id="XMLID_10_" class="st1" d="M172.4,160.4c0.2-9.1,1.2-16.1,4.9-22.4c1.2-2,2.8-4,4.7-5.5c3.2-2.6,6.9-2.4,10.1,0.1
				c2.5,1.9,4.2,4.5,5.5,7.3c2.1,4.5,3.1,9.3,3.5,14.3c0.6,7.2-0.2,14.2-2.8,21c-1.2,3.2-2.9,6.3-5.6,8.6c-4.1,3.5-8.4,3.3-12.2-0.5
				c-3.6-3.6-5.5-8.1-6.6-12.9C173.1,166.5,172.7,162.5,172.4,160.4z"/>
			<path id="XMLID_9_" class="st1" d="M252.5,160.2c-0.1,5.5-1.2,12.4-4.7,18.7c-0.9,1.5-2,3-3.2,4.2c-4.2,4.3-9.4,4.1-13.4-0.4
				c-3.8-4.2-5.6-9.3-6.6-14.7c-1.8-9.6-1.2-19.1,2.9-28.2c1.2-2.7,2.8-5.1,5.2-7c3.7-3,8-2.8,11.5,0.5c2.9,2.7,4.6,6,5.9,9.7
				C251.8,148,252.5,153.2,252.5,160.2z"/>
		</g>
	</g>
	<g id="XMLID_8_">
		<path id="XMLID_50_" class="st1" d="M23.2,461.7c2.3,0,4.7-1.2,7.1-3.5c3.6-3.5,3.6-3.8,3.6-4.1c0-0.7-0.5-1.2-1.2-1.2
			c-1,0-1.6,0.2-1.9,0.6c-0.2,0.2-0.8,0.8-2.9,2.7c-1.6,1.5-3.1,2.3-4.2,2.5c-0.8,0-1.6-0.6-2.5-1.7c-0.9-1.2-1.4-2.1-1.5-2.8l0-0.1
			c-0.2-0.8-0.8-1.2-1.6-1.2c0,0,0,0,0,0c-0.9,0.1-1.5,0.6-1.5,1.5c0,1.3,0.6,2.7,1.9,4.5C19.9,460.7,21.4,461.6,23.2,461.7z"/>
		<path id="XMLID_66_" class="st1" d="M93.9,480.2c0.6,0,1.2-0.2,1.7-0.7c0.5-0.5,0.7-1,0.7-1.7s-0.2-1.1-0.6-1.5
			c-0.8-0.8-2.2-0.8-3.2,0.1c-0.5,0.5-0.7,1-0.7,1.7c0,0.6,0.2,1.1,0.6,1.5C92.8,480,93.3,480.2,93.9,480.2z"/>
		<path id="XMLID_67_" class="st1" d="M132.7,481.8c2.3,0,4.7-1.2,7.1-3.5c3.6-3.5,3.6-3.8,3.6-4.1c0-0.7-0.5-1.2-1.2-1.2
			c-1,0-1.6,0.2-1.9,0.6c-0.2,0.2-0.8,0.8-2.9,2.7c-1.6,1.5-3.1,2.3-4.2,2.5c-0.8,0-1.6-0.6-2.5-1.7c-0.9-1.2-1.4-2.1-1.5-2.8l0-0.1
			c-0.2-0.8-0.8-1.2-1.6-1.2c0,0,0,0,0,0c-0.9,0.1-1.5,0.6-1.5,1.5c0,1.3,0.6,2.7,1.9,4.5C129.3,480.8,130.9,481.7,132.7,481.8z"/>
		<path id="XMLID_70_" class="st1" d="M165.1,500.1c0-1.4-1-1.5-1.3-1.5c-0.9,0-1.4,0.4-1.6,0.8c-3.7,6-7,9.1-9.8,9.1
			c-1.4,0-2.7-0.5-3.9-1.6c-1.2-1-2.1-2.7-2.7-5.1c2.4-3,4.1-5.4,4.9-6.9c0.9-1.6,1.3-2.9,1.3-4c0-1.7-0.7-3.7-4.2-3.7
			c-2.1,0-3.7,0.8-4.8,2.5c-1.1,1.6-1.6,3.5-1.6,5.7c0,2,0.2,4,0.7,5.8c-1.2,1.4-2.7,2.8-4.5,4.2c-2.7,2.1-5.2,3.1-7.4,3.1
			c-1.8,0-3.4-0.5-4.8-1.4c-1.3-0.9-2-2.3-2-4.3c0-2.4,0.9-5.2,2.8-8.3c1.8-3,3.6-4.5,5.3-4.5c0.5,0,0.6,0.2,0.8,0.3
			c0.2,0.3,0.3,0.6,0.3,0.9c0,0.6-0.2,1.5-0.7,2.6l0,0.2c0,1.5,1,1.6,1.3,1.6c1,0,1.7-0.6,2-1.6c0.3-1.1,0.5-2.2,0.5-3
			c0-1.2-0.4-2.2-1.1-3c-0.7-0.8-1.7-1.2-2.9-1.2c-2.9,0-5.6,1.9-7.9,5.6c-1.4,2.2-2.4,4.3-2.9,6.4c-0.1,0.1-0.1,0.2-0.2,0.2
			c-3.7,6-7,9.1-9.8,9.1c-1.4,0-2.7-0.5-3.9-1.6c-1.2-1-2.1-2.7-2.7-5.1c2.4-3,4.1-5.4,4.9-6.9c0.9-1.6,1.3-2.9,1.3-4
			c0-1.7-0.7-3.7-4.2-3.7c-2.1,0-3.7,0.8-4.8,2.5c-1.1,1.6-1.6,3.5-1.6,5.7c0,2,0.2,4,0.7,5.8c-1.7,2.1-3.5,3.8-5.3,5.3
			c-1.4,1.1-2.7,2.2-4.1,3.3c1.7-12.2,2.6-18.6,2.7-19.5c0.2-0.9,0.3-1.7,0.3-2.3c0-0.3-0.1-1.3-1.5-1.3c-0.5,0-1.4,0.2-1.7,1.5
			c-1.4,3.7-2.6,6.3-3.5,7.8c-0.6,1-1.1,1.8-1.4,2.3c-1.1,1.5-2.4,2.2-4.1,2.2c-1.3,0-2.3-0.4-3-1.2c-0.7-0.8-1.1-1.7-1.1-2.6
			l0.1-1.4c1.1-5.5,1.3-6.6,1.3-6.9c0-0.4-0.1-0.7-0.2-1c-0.2-0.4-0.6-0.6-1-0.6c-0.3,0-0.6,0.1-1,0.4c-0.3,0.2-0.7,0.7-1.1,2.6
			c-0.3,1.3-0.6,3-1,5c-0.4,2-1.2,4.8-2.5,8.4c-1.2,3.4-2.6,5.1-4.3,5.1c-0.7,0-0.9-0.3-1-0.6c-0.2-0.6-0.3-1.2-0.3-2
			c0-0.8,0.1-2,0.4-3.6c0.3-1.6,0.7-3.7,1.4-6.2c0.7-2.6,1.1-4.4,1.1-5.5c0-0.7-0.2-1.5-0.6-2.2c-0.4-0.8-1.2-1.3-2.5-1.4
			c-2.3,0-4.5,1.7-6.7,5.1c-1.8,2.8-3.2,5-4.1,6.5c-0.1,0.2-0.2,0.3-0.2,0.4c0,0-0.1,0.1-0.1,0.1c-1.3,1.6-3.1,2.4-5.3,2.4
			c-1.3,0-2.5-0.2-3.5-0.6c0.4-1.5,0.6-3.1,0.6-4.8c0-2.5-0.6-4.6-1.8-6.4c-1.2-1.8-2.8-2.7-4.8-2.7c-2.9,0-5.5,1.7-7.7,4.9
			c-1.4,2.1-2.4,4.3-2.9,6.7c-0.2,0.3-0.3,0.5-0.4,0.7c-0.2,0.3-0.4,0.6-0.7,1.1c-0.5,0.9-2,2.5-4.4,4.7c-2.4,2.2-5.3,3.3-8.8,3.3
			c-2.7,0-4.8-1-6.4-3c-1.6-2-2.4-4.7-2.4-8c0-2.9,0.5-6.2,1.6-9.7c1.1-3.5,2.4-6.7,4-9.5c1.5-2.7,3.4-4.8,5.5-6.2
			c2.1-1.4,4.1-2.1,5.8-2.1c1.2,0,2.1,0.4,2.9,1.2c0.7,0.8,1.1,2.4,1.1,4.6c0,2.1-0.2,3.6-0.6,4.5c-0.5,1-1.1,1.1-1.5,1.1
			c-0.5,0-0.8-0.2-0.9-0.6c-0.2-0.6-0.3-1.1-0.3-1.6c0-0.2,0-0.6,0.3-1.4c0.2-0.6,0.5-1,0.9-1.3c0.6-0.5,1-1.1,1-1.9l0-0.3l-0.3-0.2
			c-1.1-0.6-2.2-0.3-3.2,0.8c-0.7,0.7-1.1,1.5-1.3,2.3c-0.2,0.8-0.3,1.5-0.3,2.1c0,1.6,0.4,2.9,1.2,3.8c0.8,0.9,1.8,1.4,3.1,1.4
			c1.4,0,2.7-0.7,3.7-1.9c1-1.3,1.5-3.5,1.5-6.7c0-2.7-0.6-4.9-1.9-6.4c-1.3-1.6-3-2.4-5.2-2.4c-2.1,0-4.4,0.8-6.9,2.3
			c-2.5,1.5-4.7,3.8-6.6,6.8c-1.9,3-3.5,6.6-4.7,10.7c-1.2,4.1-1.8,7.8-1.8,10.9c0,4.2,1,7.6,3.1,10.1c2.1,2.6,5,3.9,8.8,3.9
			c4,0,7.3-1.1,9.8-3.2c1.9-1.6,3.3-2.9,4.3-4.1c0.2,1.7,0.8,3.2,1.7,4.5c1.3,1.8,2.9,2.7,4.9,2.7c2.9,0,5.4-1.7,7.6-5
			c0.6-0.9,1.2-1.9,1.6-2.8c1.3,0.5,2.9,0.8,4.5,0.8c0,0,0,0,0,0c3-0.1,5.3-1.1,6.9-2.9c0.5-0.5,0.8-0.9,1.1-1.3
			c0,0,0.1-0.1,0.1-0.1c0.2-0.3,0.5-0.8,0.8-1.4c0.3-0.6,1.5-2.4,3.4-5.4c1.9-2.9,2.9-3.4,3.4-3.4c0.2,0,0.4,0,0.4,0.6
			c0,0.1,0,0.5-0.2,1.6c-0.2,0.9-0.6,2.7-1.3,5.5c-0.7,2.8-1.1,5.5-1.2,8c0,2,0.3,3.5,1.1,4.4c0.7,1,1.7,1.5,3,1.5
			c1.7,0,3.3-0.7,4.7-2c1.4-1.3,2.6-3.9,3.9-7.8c0-0.1,0.1-0.3,0.1-0.4c0.1,0.1,0.2,0.2,0.3,0.4c1.3,1.4,3.1,2.2,5.4,2.2
			c2.7,0,5-1.4,6.9-4.2c0.1-0.1,0.2-0.2,0.2-0.3c0.2-0.2,0.3-0.5,0.5-0.8c-1.1,7.8-1.8,12.6-2,14.3c-2.1,1.8-4.1,3.8-6.2,6.1
			c-2.3,2.5-3.5,5.2-3.5,7.8c0,2.1,0.5,3.7,1.5,4.9c1,1.2,2.1,1.8,3.2,1.8c1.6,0,3-0.8,4.2-2.4c1.2-1.6,2.1-5,2.8-10.4
			c0.2-1.8,0.5-3.9,0.8-6.2c2-1.7,4.2-3.6,6.8-5.7c1.5-1.3,3-2.7,4.3-4.2c0.3,0.7,0.6,1.3,0.9,1.9c1.8,3.4,4.6,5.2,8.4,5.2
			c2.8,0,5.6-1.6,8.2-4.8c0.5-0.7,1-1.3,1.5-1.9c0.3,1.8,1.1,3.2,2.3,4.3c1.6,1.5,4.1,2.3,7.4,2.3c3.2,0,6.4-1.3,9.5-3.9
			c1.3-1.1,2.5-2.1,3.5-3.2c0.3,0.6,0.6,1.3,0.9,1.9c1.8,3.4,4.6,5.2,8.4,5.2c2.8,0,5.6-1.6,8.2-4.8c2.6-3.1,4-5.3,4.5-6.6
			L165.1,500.1z M41.6,504.8c-1.6,2.6-3.4,3.9-5.4,3.9c-0.9,0-1.7-0.5-2.4-1.7c-0.8-1.2-1.2-2.6-1.2-4.3c0-3,0.9-5.9,2.6-8.5
			c1.5-2.4,3.2-3.7,4.9-3.9c-0.5,1.3-0.8,2.8-0.8,4.5c0,3.1,1,5.5,3.1,7.2c0.1,0.1,0.3,0.3,0.4,0.4C42.4,503.2,42,504,41.6,504.8z
			 M43.8,499.1c-1-1.2-1.5-2.6-1.5-4.3c0-1.2,0.2-2.2,0.5-3.1c0,0.1,0.1,0.1,0.1,0.2c0.7,1.2,1.1,2.6,1.1,4.3
			C44.1,497.2,44,498.2,43.8,499.1z M86.6,520.2c-0.8,6.1-1.6,8.2-2.1,8.9c-0.6,0.9-1.3,1.4-1.9,1.4c-0.1,0-0.4-0.1-1-0.8
			c-0.4-0.6-0.7-1.5-0.7-2.7c0-1.7,0.8-3.5,2.3-5.4c1.1-1.3,2.3-2.6,3.7-3.9C86.8,518.5,86.7,519.4,86.6,520.2z M103.1,498
			c-0.1-0.7-0.1-1.5-0.1-2.4c0-1.4,0.4-2.7,1-3.7c0.7-1,1.4-1.4,2.1-1.4c0.7,0,0.9,0.3,1,0.7c0,0.4-0.3,1.2-1.2,2.8
			C105.2,495.1,104.3,496.4,103.1,498z M144.7,498c-0.1-0.7-0.1-1.5-0.1-2.4c0-1.4,0.4-2.7,1-3.7c0.7-1,1.4-1.4,2.1-1.4
			c0.7,0,0.9,0.3,1,0.7c0,0.4-0.3,1.2-1.2,2.8C146.8,495.1,145.9,496.4,144.7,498z"/>
		<path id="XMLID_82_" class="st1" d="M169.1,506.2c-0.3,0-0.7,0.1-1.1,0.2l-0.2,0.1l-0.1,0.2c-1.1,3-2.4,6.3-4,9.8
			c-0.4,1.3-0.5,1.8-0.5,2.1c0,0.5,0.3,0.8,0.8,0.8c0.2,0,0.5-0.1,1-0.3c1.1-0.7,2.1-2.2,3.1-4.4c0.8-1.9,1.7-4.1,2.5-6.6l0-0.1
			l0-0.1C170.5,506.3,169.5,506.2,169.1,506.2z"/>
		<path id="XMLID_83_" class="st1" d="M306.2,481.8c2.3,0,4.7-1.2,7.1-3.5c3.6-3.5,3.6-3.8,3.6-4.1c0-0.7-0.5-1.2-1.2-1.2
			c-1,0-1.6,0.2-1.9,0.6c-0.2,0.2-1.2,1.2-2.9,2.7c-1.6,1.5-3.1,2.3-4.2,2.5c-0.8,0-1.6-0.6-2.5-1.7c-0.9-1.2-1.4-2.1-1.5-2.8l0-0.1
			c-0.2-0.8-0.8-1.2-1.6-1.2c0,0,0,0,0,0c-0.9,0.1-1.5,0.6-1.5,1.5c0,1.3,0.6,2.7,1.9,4.5C302.9,480.8,304.4,481.7,306.2,481.8z"/>
		<path id="XMLID_84_" class="st1" d="M326.2,480.2c0.6,0,1.2-0.2,1.7-0.7c0.5-0.5,0.7-1,0.7-1.7s-0.2-1.1-0.6-1.5
			c-0.8-0.8-2.2-0.8-3.2,0.1c-0.5,0.5-0.7,1-0.7,1.7c0,0.6,0.2,1.1,0.6,1.5C325.1,480,325.6,480.2,326.2,480.2z"/>
		<path id="XMLID_87_" class="st1" d="M338.2,497.9c-0.4-0.2-0.6-0.2-0.8-0.2c-0.4,0-1,0.2-1.4,1.1c-4.9,8.1-7.7,9.8-9.1,9.8
			c-1.2,0-2.1-0.5-2.7-1.5c-0.7-1.1-1-2.5-1-4.2c0-2.1,0.2-4.1,0.5-6.1c0.4-1.9,0.8-3.6,1.2-5c0.4-1.5,0.6-2.6,0.6-3.6
			c0-0.6-0.4-1.2-1.3-1.2c-1.4,0-2,1.8-2.2,2.4c-1.3,3.3-2.3,5.7-3.2,7.1c-0.7,1.1-1.1,1.9-1.4,2.4c-0.1,0.1-0.1,0.1-0.2,0.2l0,0
			c-1.4,2.1-3.5,4.2-6.2,6.3c-2.7,2.1-5.2,3.1-7.4,3.1c-1.8,0-3.4-0.5-4.8-1.4c-1.3-0.9-2-2.3-2-4.3c0-2.4,0.9-5.2,2.8-8.3
			c1.8-3,3.6-4.5,5.3-4.5c0.5,0,0.7,0.2,0.8,0.3c0.2,0.3,0.3,0.6,0.3,0.9c0,0.6-0.2,1.5-0.7,2.6l0,0.2c0,1.5,1,1.6,1.3,1.6
			c1,0,1.7-0.6,2-1.6c0.3-1.1,0.5-2.2,0.5-3c0-1.2-0.4-2.2-1.1-3c-0.7-0.8-1.7-1.2-2.9-1.2c-2.9,0-5.6,1.9-7.9,5.6
			c-1.4,2.2-2.3,4.3-2.9,6.3c-0.9,1.5-2.2,3.4-3.9,5.9c-1.6,2.4-3.2,3.7-4.7,3.7c-1.2,0-2-0.3-2.6-1c-0.6-0.7-0.9-2.1-0.9-4.1
			c0-1.5,0.2-3.5,0.6-5.8c0.4-2.4,0.9-5.4,1.4-8.7c0-0.1,0-0.3,0-0.4c0-0.9-0.5-1.4-1.5-1.4c-0.6,0-1.6,0.3-1.8,2l-0.8,5
			c-0.6,3.9-1.7,7.3-3.4,10.2c-1.6,2.8-3.3,4.2-4.9,4.2c-1.1,0-1.8-0.4-2.3-1.2c-0.5-0.9-0.7-2.3-0.7-4.3c0-1.8,0-3.2,0.1-4.2
			c0.1-1,0.7-4.4,1.9-10.1c0-0.1,0-0.3,0-0.4c0-0.8-0.5-1.3-1.4-1.3c-0.6,0-1.6,0.2-1.9,1.8c-0.2,1.3-0.5,2.7-0.9,4.1
			c-0.3,1.3-0.8,2.6-1.3,3.6c-0.5,1-0.8,1.7-1,2c-0.1,0.1-0.3,0.3-0.4,0.5c-0.8,1.4-2.1,3.4-3.9,6c-1.6,2.5-3.3,3.7-5,3.7
			c-0.8,0-1.5-0.4-2.3-1.1c-0.8-0.7-1.1-2.1-1.1-4.1c0-1.2,0.1-2.4,0.3-3.6c0.2-1.2,0.3-2.4,0.3-3.7c0-2.5-0.6-4.6-1.8-6.4
			c-1.2-1.8-2.8-2.7-4.8-2.7c-2.9,0-5.5,1.7-7.7,4.9c-1.4,2.1-2.4,4.3-2.9,6.6c0,0,0,0,0,0c-2.5,3.8-4.3,6.4-5.4,7.9
			c-1,1.3-2.1,2-3.1,2c-1,0-1.6-0.3-2.1-0.9c-0.3-0.4-0.7-1.4-0.7-3.8c0-1.1,0.3-3.4,0.9-6.7c0.6-3.4,0.9-5.8,0.9-7.3
			c-0.3-1.8-1.4-2.8-3.3-2.9c-3,0-5.4,1-7.1,2.9c-0.7-2.1-2.2-2.6-3.3-2.7c-2.7,0-5.1,1.8-7,5.3c-2.7,4.8-3.4,6-3.5,6.1
			c-0.3,0.4-0.4,0.7-0.4,1c0,0.4,0.2,1.3,1.7,1.3c0.3,0,0.8-0.1,1.1-0.7c0.1-0.1,0.2-0.2,1.8-3c1-1.8,2-3.4,2.8-4.7
			c0.8-1.2,1.8-1.9,3.2-2.1c0.5,0.1,0.5,0.3,0.6,0.4c0.1,0.2,0.2,0.8,0.2,1.9c0,0.9-0.2,2.9-0.7,5.9c-0.5,3-0.9,5.5-1.1,7.4
			c-0.3,1.9-0.4,3.3-0.4,4c0,1.5,0.9,1.7,1.2,1.7c0.8,0,1.9-0.5,2.2-2.7c0.6-3.6,1-7,1.4-10.2c0.4-3,1.1-5.3,2.3-6.8
			c1.2-1.4,2.7-2.1,4.7-2.1c0.1,0,0.3,0,0.3,0.8c0,0.5-0.2,1.8-0.9,5.7c-0.6,3.2-1,5.7-1,7.3c0,3,0.6,5,1.7,6.1
			c1.1,1.1,2.6,1.6,4.4,1.6c1.4,0,2.7-0.5,3.8-1.4c0.9-0.7,2.3-2.5,4.3-5.6c0.3,1.6,0.8,3,1.7,4.3c1.3,1.8,2.9,2.7,4.9,2.7
			c2.8,0,5.4-1.7,7.6-4.9c0.3,1.1,0.8,2.1,1.5,2.8c1.2,1.4,2.8,2.1,4.7,2.1c2.4,0,4.4-1.1,6.1-3.2c1.6-2,2.9-3.9,3.9-5.6
			c0.1-0.2,0.2-0.3,0.3-0.5c0,0.3,0,0.5,0,0.8c0,3.1,0.5,5.2,1.6,6.5c1.1,1.3,2.7,2,4.7,2c2.9,0,5.4-1.8,7.4-5.4
			c0.3,1.5,0.8,2.6,1.6,3.5c1.2,1.3,2.8,1.9,4.8,1.9c2.2,0,4.1-1.1,5.8-3.2c0.8-1,1.6-2.1,2.4-3.3c0.3,1.7,1.1,3.1,2.3,4.2
			c1.6,1.5,4.1,2.3,7.4,2.3c3.2,0,6.4-1.3,9.5-3.9c3.1-2.5,5.4-5,6.8-7.3c0.1-0.1,0.2-0.2,0.2-0.3c-0.1,1.1-0.2,2-0.2,2.7
			c0,2.6,0.5,4.7,1.6,6.3c1.1,1.7,2.9,2.5,5.3,2.5c3.5,0,7.4-3.9,11.9-11.9c0.1-0.3,0.2-0.5,0.2-0.7
			C338.9,498.5,338.7,498.1,338.2,497.9z M246.8,504.8c-1.6,2.6-3.4,3.9-5.4,3.9c-0.9,0-1.7-0.5-2.4-1.7c-0.8-1.2-1.2-2.6-1.2-4.3
			c0-1,0.1-2.1,0.3-3.1c0.2-0.4,0.2-0.6,0.2-0.8c0,0,0-0.1,0-0.1c0.4-1.6,1.1-3.1,2-4.6c1.7-2.6,3.5-3.9,5.4-3.9
			c0.9,0,1.7,0.5,2.4,1.7c0.7,1.2,1.1,2.6,1.1,4.3C249.3,499.3,248.5,502.1,246.8,504.8z"/>
		<path id="XMLID_90_" class="st1" d="M406.1,498.6c-0.9,0-1.4,0.4-1.6,0.8c-3.7,6-7,9.1-9.8,9.1c-1.4,0-2.7-0.5-3.9-1.6
			c-1.2-1-2.1-2.7-2.7-5.1c2.4-3,4.1-5.4,4.9-6.9c0.9-1.6,1.3-2.9,1.3-4c0-1.7-0.7-3.7-4.2-3.7c-2.1,0-3.7,0.8-4.8,2.5
			c-1.1,1.6-1.6,3.5-1.6,5.7c0,2.1,0.3,4.1,0.7,6.1c-1.1,1.5-2.2,2.6-3.2,3.4c-1.2,0.9-2.4,1.7-3.7,2.3c0.5-1,0.8-2.2,0.8-3.6
			c0-2.2-1.1-4.5-3.1-6.7c-1.9-2-2.9-3.7-2.9-5c0-0.6,0.2-1.2,0.6-1.6c0.6-0.6,0.9-1.3,0.9-1.9c0-0.3-0.1-0.6-0.2-1
			c-0.3-0.6-0.6-0.7-0.9-0.7c-0.5,0-0.9,0.1-1.2,0.4c-0.2,0.2-0.6,0.6-2.4,2.7c-1.3,1.6-2.5,3.2-3.6,4.8c-1.1,1.6-1.8,2.6-2.1,3
			c-0.3,0.4-0.5,0.7-0.6,0.9c-0.3,0.4-0.4,0.7-0.4,1c0,0.1,0,0.3,0.1,0.3c0.1,0.4,0.5,1,1.7,1c0.3,0,0.8-0.1,1.1-0.7
			c0.1-0.2,0.4-0.6,0.8-1.2c0.4-0.6,1.5-2.2,3.4-4.8c0.5,1.5,1.4,2.9,2.6,4.1c1.3,1.4,2.2,2.5,2.5,3.2c0.3,0.7,0.5,1.4,0.5,2
			c0,0.8-0.3,1.7-0.9,2.8c-0.6,1-1.3,1.7-2,2c-0.8,0.3-1.4,0.4-1.9,0.4c-1.1,0-1.9-0.3-2.4-0.8c-0.5-0.5-0.8-1.1-0.8-1.6
			c0-0.7,0.1-1,0.1-1.1c0.1-0.3,0.1-0.6,0.1-0.8c0-1-0.7-1.1-0.9-1.1c-0.6,0-1.2,0.3-1.6,0.8c-0.4,0.5-0.7,1.3-0.7,2.3
			c0,1.3,0.5,2.5,1.6,3.5c1,1.1,2.6,1.6,4.6,1.6c1.8,0,3.8-0.3,6-0.9c2.2-0.6,4.4-1.7,6.4-3.4c1.1-0.9,2-1.7,2.8-2.5
			c0.2,0.5,0.5,1,0.7,1.6c1.8,3.4,4.6,5.2,8.4,5.2c2.8,0,5.6-1.6,8.2-4.8c2.6-3.1,4-5.3,4.5-6.6l0-0.2
			C407.4,498.7,406.4,498.6,406.1,498.6z M387,498c-0.1-0.7-0.1-1.5-0.1-2.4c0-1.4,0.4-2.7,1-3.7c0.7-1,1.4-1.4,2.1-1.4
			c0.7,0,0.9,0.3,1,0.7c0,0.4-0.3,1.2-1.2,2.8C389.1,495.1,388.2,496.4,387,498z"/>
		<path id="XMLID_91_" class="st1" d="M420,467.5c-0.6-0.6-1.5-0.6-2.1-0.1c-0.3,0.3-0.5,0.6-0.5,0.9c-4.5,31.6-4.5,31.7-4.5,31.8
			c0,0.4,0.1,0.8,0.4,1.1c0.3,0.3,0.6,0.5,1.1,0.5c0.4,0,0.8-0.1,1.1-0.4c0.3-0.3,0.5-0.6,0.5-0.9c4.5-31.6,4.5-31.7,4.5-31.8
			C420.4,468.2,420.2,467.8,420,467.5z"/>
		<path id="XMLID_92_" class="st1" d="M413.3,507c-0.7,0-1.3,0.3-1.9,0.8c-0.5,0.5-0.8,1.2-0.8,1.9c0,0.7,0.2,1.3,0.7,1.7
			c0.4,0.4,1,0.7,1.7,0.7s1.3-0.3,1.9-0.8c0.5-0.5,0.8-1.2,0.8-1.9s-0.2-1.3-0.7-1.7C414.6,507.2,414,507,413.3,507z"/>
	</g>
</g>
</svg>
