<?xml version="1.0" encoding="utf-8"?>
<!-- Generator: Adobe Illustrator 19.0.0, SVG Export Plug-In . SVG Version: 6.00 Build 0)  -->
<svg version="1.1" id="Layer_1" xmlns="http://www.w3.org/2000/svg" xmlns:xlink="http://www.w3.org/1999/xlink" x="0px" y="0px"
	 viewBox="0 0 265 300" style="enable-background:new 0 0 265 300;" xml:space="preserve">
<style type="text/css">
	.st0{fill:#FCEE23;}
	.st1{fill:#1D0E0E;}
</style>
<path id="XMLID_16_" class="st0" d="M199.3,129.2c0.6,11.2-2,22.4-7.8,33.3c-3.8,7.1-7.7,11.9-8.9,13.2c-17.1,14-22.4,36.3-24.1,48
	l-49.6,5.9c-1-11.9-3.4-22.4-7.3-31.3c-3.8-8.8-7.8-12.9-8.6-13.6l-0.2-0.2l-0.2-0.1c-4.4-3.9-8.3-8.2-11.6-12.9
	c-1.4-2-5.2-7.3-8.5-14.7c-3.8-8.7-5.7-17.5-5.7-26.1c0-10,2.7-20.1,7.7-29.4c5-9.2,12.1-17.2,20.5-23.1c11-7.7,24.8-11.9,38.7-11.9
	c7.2,0,14.2,1.1,20.9,3.3c6.9,2.2,13.2,5.5,18.9,9.8c10,7.6,17.3,17.8,21.7,30.5C197.6,116,199,123,199.3,129.2z"/>
<g>
	<path class="st1" d="M208.1,128.7c1.6,31.3-19.4,53.3-19.4,53.3c-21.1,16.8-22.1,49.5-22.1,49.5l-66,7.9
		c-0.5-35.7-13.7-48.5-13.7-48.5c-3.6-3.2-8.4-7.9-13-14.4c-3.8-5.3-15.9-22.8-15.8-46c0.1-23.4,12.6-46.2,31.9-59.7
		c12.8-9,28.3-13.5,43.7-13.5c16,0,32,4.9,45.1,14.8C206.2,92.7,207.9,125,208.1,128.7z M191.5,162.5c5.8-10.9,8.4-22.1,7.8-33.3
		c-0.3-6.2-1.7-13.1-3.9-19.5C191,97,183.7,86.7,173.7,79.1c-5.6-4.3-12-7.6-18.9-9.8c-6.7-2.2-13.8-3.3-20.9-3.3
		c-13.9,0-27.7,4.2-38.7,11.9c-8.4,5.9-15.5,13.9-20.5,23.1c-5,9.3-7.7,19.5-7.7,29.4c0,8.6,1.9,17.4,5.7,26.1
		c3.3,7.4,7,12.7,8.5,14.7c3.3,4.7,7.3,9,11.6,12.9l0.2,0.1l0.2,0.2c0.8,0.7,4.7,4.8,8.6,13.6c3.9,8.9,6.3,19.4,7.3,31.3l49.6-5.9
		c1.6-11.7,7-34,24.1-48C183.8,174.3,187.8,169.6,191.5,162.5z"/>
	<g>
		<path id="XMLID_13_" class="st1" d="M44.4,227.5c-2.2-0.1-4.1-1.4-5.3-3.6c-1.1-2.2-1-4.5,0.6-6.4c1.5-1.8,3.3-3.4,5-5
			c7.5-6.7,15-13.4,22.5-20.1c0.1-0.1,0.2-0.2,0.4-0.3c2.7-2.3,5.6-2.6,7.3-0.8c1.7,1.7,1.4,4.5-0.9,7.1c-7.6,8.6-15.3,17.1-23,25.7
			C49.3,225.8,47.5,227.5,44.4,227.5z"/>
		<path id="XMLID_12_" class="st1" d="M221.2,228c-1.7-1.2-3.8-2.1-5.2-3.6c-5.7-6.1-11.2-12.4-16.8-18.6c-2.1-2.3-4.2-4.7-6.2-7
			c-0.5-0.6-1-1.1-1.4-1.8c-1.2-1.9-1.7-3.9-0.1-5.8c1.3-1.6,3.9-1.7,6-0.1c3.1,2.5,6,5.2,9,7.8c6.4,5.7,12.9,11.4,19.2,17.3
			c3.5,3.3,2.9,8.3-1.2,10.4c-0.9,0.5-1.9,0.6-2.8,1C221.5,227.8,221.4,227.9,221.2,228z"/>
		<path id="XMLID_11_" class="st1" d="M228.9,43c-0.9,1.7-1.5,3.6-2.8,4.7c-9,8.3-18.2,16.4-27.3,24.6c-0.7,0.7-1.7,1.4-2.6,1.4
			c-1.4,0-3.2-0.2-4.1-1c-0.8-0.8-1-2.6-0.8-3.9c0.1-1.1,1-2.2,1.7-3c7.8-8.8,15.7-17.7,23.7-26.4c3.3-3.6,7.3-3.8,10.1-0.6
			C227.6,39.8,228,41.3,228.9,43z"/>
		<path id="XMLID_10_" class="st1" d="M75,69.7c0.1,3.7-2.4,5.6-5.1,4.7c-1.2-0.5-2.4-1.2-3.4-2.1c-8.4-7.4-16.8-14.9-25.1-22.4
			c-0.9-0.8-1.7-1.6-2.4-2.6c-2-2.8-1.7-5.9,0.7-8.3c2.3-2.2,5.4-2.5,8.1-0.6c0.8,0.6,1.6,1.3,2.2,2c7.7,8.6,15.3,17.1,22.9,25.7
			C73.9,67.4,74.6,69,75,69.7z"/>
		<path id="XMLID_9_" class="st1" d="M25.2,138c-5.2,0.2-11.1,0.6-17,0.8c-4,0.1-6.6-2.3-6.8-5.9c-0.2-4.1,2.6-6.9,7-6.8
			c7.2,0.3,14.3,0.7,21.5,1.1c4.5,0.2,8.9,0.5,13.4,0.8c0.6,0,1.2,0,1.8,0.1c3,0.3,5.1,2.1,5.1,4.3c0,2.2-2,4.1-5,4.4
			c-5,0.4-10.1,0.6-15.1,0.9C28.6,137.8,27.3,137.9,25.2,138z"/>
		<path id="XMLID_8_" class="st1" d="M243.2,126.8c4.8-0.3,9.6-0.6,14.4-0.7c4.5-0.1,7.4,2.5,7.4,6.4c0,3.9-2.9,6.5-7.5,6.3
			c-11.9-0.6-23.7-1.3-35.6-1.9c-0.5,0-1-0.1-1.5-0.2c-2.7-0.6-4.3-2.3-4.1-4.4c0.1-2.1,2.1-3.9,4.7-4.1c3.6-0.3,7.2-0.5,10.9-0.7
			C235.7,127.3,239.5,127.1,243.2,126.8C243.2,126.9,243.2,126.9,243.2,126.8z"/>
		<path id="XMLID_7_" class="st1" d="M139.4,21.3c-0.4,7.2-0.8,14.3-1.2,21.5c0,0.3,0,0.5,0,0.8c-0.3,2.9-2.1,5.1-4.3,5.2
			c-2.2,0.1-4.2-1.9-4.4-5c-0.5-6.3-0.9-12.6-1.2-18.9c-0.3-5.5-0.6-10.9-0.8-16.4c-0.1-1.5,0-3.1,0.4-4.5c0.9-2.8,3.8-4.4,6.9-3.9
			c3.1,0.5,5.4,2.9,5.4,6.1C140.1,11.2,139.7,16.3,139.4,21.3C139.5,21.3,139.4,21.3,139.4,21.3z"/>
	</g>
	<polygon id="XMLID_6_" class="st1" points="99.7,248.9 99.8,256.2 166.1,247.5 165.5,239.7 99.7,248.1 	"/>
	<polygon id="XMLID_5_" class="st1" points="99.8,265.5 99.9,272.8 166.2,264.1 165.6,256.3 99.8,264.7 	"/>
	<path id="XMLID_4_" class="st1" d="M101.1,281l65.1-8.2c0,0-9.5,22.8-29.6,24.7S101.1,281,101.1,281z"/>
	<g>
		<path id="XMLID_3_" class="st1" d="M172.2,137.9c-0.6,0.3-1.1,0.5-1.6,0.8c-1.7,0.8-3.5,0.3-4.5-1.3c-0.9-1.5-0.4-3.4,1.1-4.4
			c0.6-0.4,1.2-0.7,1.9-1c2.6-1.3,5.1-2.6,7.7-3.9c2.1-1,4.4,0,4.9,2.2c0.3,1.4-0.2,3.1-1.6,3.6c-1.9,0.7-2.1,1.9-2,3.7
			c0.8,13.1-3.1,24.7-11.9,34.6c-7.3,8.2-16.4,13.3-27.3,14.6c-15.4,1.8-28.3-3.2-38.8-14.6c-5.4-5.9-8.9-12.9-10.7-20.7
			c-1.2-5.2-1.6-10.4-1-15.7c0-0.3-0.3-0.8-0.5-1c-0.5-0.4-1.1-0.6-1.6-0.9c-1.5-0.9-2.1-2.6-1.4-4.2c0.7-1.5,2.4-2.3,4-1.9
			c0.5,0.1,0.9,0.4,1.4,0.6c2.8,1.4,5.6,2.8,8.4,4.2c2.2,1.2,2.8,3.5,1.3,5.2c-1,1.2-2.7,1.6-4.1,0.9c-0.5-0.2-1-0.5-1.6-0.8
			c-0.1,0.4-0.1,0.7-0.1,1c-0.2,9,1.9,17.5,7,24.9c3.8,5.6,8.7,10.1,14.8,13.2c7.8,4,16,5.1,24.5,3.4c11.4-2.2,20-8.5,26-18.4
			C170.9,154.7,172.9,146,172.2,137.9z"/>
		<path id="XMLID_2_" class="st1" d="M106.9,106.6c0.1-6.1,0.8-10.7,3.2-14.9c0.8-1.4,1.9-2.6,3.1-3.6c2.1-1.7,4.6-1.6,6.7,0.1
			c1.7,1.3,2.8,3,3.6,4.9c1.4,3,2.1,6.2,2.3,9.5c0.4,4.8-0.1,9.4-1.8,13.9c-0.8,2.2-1.9,4.2-3.7,5.7c-2.7,2.3-5.6,2.2-8.1-0.3
			c-2.4-2.4-3.7-5.4-4.4-8.6C107.3,110.6,107.1,108,106.9,106.6z"/>
		<path id="XMLID_1_" class="st1" d="M160.1,106.5c-0.1,3.6-0.8,8.2-3.1,12.4c-0.6,1-1.3,2-2.1,2.8c-2.8,2.8-6.2,2.7-8.9-0.3
			c-2.5-2.8-3.7-6.2-4.4-9.8c-1.2-6.4-0.8-12.7,1.9-18.7c0.8-1.8,1.9-3.4,3.4-4.7c2.5-2,5.3-1.8,7.6,0.3c1.9,1.8,3.1,4,3.9,6.4
			C159.6,98.4,160.1,101.8,160.1,106.5z"/>
	</g>
</g>
</svg>
